<svg xmlns="http://www.w3.org/2000/svg" xml:space="preserve" viewBox="0 0 1080 1080"><g transform="translate(540 540)"/><g transform="matrix(0 0)"/><path fill="#F806CC" d="M1077.334 426.636a528.652 528.652 0 0 0-35.45-113.44C942.584 92.555 703.67-29.86 466.579 18.454a502.358 502.358 0 0 0-57.733 15.193 497.314 497.314 0 0 0-80.015 27.347A522.636 522.636 0 0 0 81.693 788.227a543.875 543.875 0 0 0 41.527 64.823 577.3 577.3 0 0 0 50.643 57.733 523.638 523.638 0 0 0 560.112 116.48l33.424-14.18 30.386-15.194a515.617 515.617 0 0 0 58.746-38.488l27.347-21.27 12.154-11.142 11.142-9.116 20.257-18.231 7.09-6.077 6.077-7.09 18.231-20.257a491.278 491.278 0 0 0 59.76-84.068 510.42 510.42 0 0 0 56.72-148.89 522.504 522.504 0 0 0 2.025-206.624M900.084 905.72l-12.155 11.142-12.154 11.141-26.334 21.27a501.487 501.487 0 0 1-57.733 36.463l-30.386 15.193-32.412 13.167-49.63 16.206h-5.064a515.566 515.566 0 0 1-205.61 1.013 524.641 524.641 0 0 1-112.428-36.463 511.515 511.515 0 0 1-106.35-64.823 526.657 526.657 0 0 1-92.17-95.21 509.469 509.469 0 0 1-37.477-57.732c-6.077-10.129-11.141-20.257-16.205-31.399s-10.129-21.27-13.168-32.411a512.507 512.507 0 0 1 87.106-514.533l8.103-8.103 5.065-6.077 6.077-6.077 12.154-11.142 24.309-21.27A511.494 511.494 0 0 1 649.907 40.737a491.237 491.237 0 0 1 148.89 52.668 476.014 476.014 0 0 1 84.068 58.746l20.257 18.232 7.09 6.077 6.077 7.09 18.232 20.257a503.402 503.402 0 0 1 114.453 231.945 514.614 514.614 0 0 1-1.013 204.598 522.838 522.838 0 0 1-36.463 111.414 508.395 508.395 0 0 1-66.849 106.35l-21.27 24.31-23.295 23.295m-454.775 131.672a507.585 507.585 0 0 1-138.761-50.643 524.763 524.763 0 0 1-62.798-40.515 559.15 559.15 0 0 1-55.707-48.617A505.417 505.417 0 0 1 76.628 358.775c4.052-11.142 9.116-21.27 13.168-31.399l6.077-13.167a508.456 508.456 0 0 0-34.438 111.414 519.597 519.597 0 0 0 24.31 288.666c4.05 11.141 9.115 22.282 14.18 32.411 5.063 10.129 10.128 21.27 16.205 31.399a512.527 512.527 0 0 0 37.476 58.746 521.593 521.593 0 0 0 93.183 96.221 516.579 516.579 0 0 0 399.067 105.338 509.408 509.408 0 0 1-200.547-1.013m626.96-404.131a508.304 508.304 0 0 1-55.707 148.89 490.255 490.255 0 0 1-58.745 84.068l-18.232 20.257-6.077 7.09-7.09 6.077-19.244 17.219h2.025l23.296-24.31 21.27-25.32a519.617 519.617 0 0 0 65.836-109.39 520.61 520.61 0 0 0 32.412-320.063 502.672 502.672 0 0 0-25.322-83.055 500.343 500.343 0 0 0-31.399-65.836 493.293 493.293 0 0 0-59.758-84.067l-18.232-20.257-6.077-7.09-7.09-6.077-20.257-18.232a505.448 505.448 0 0 0-83.055-63.81 499.32 499.32 0 0 0-65.836-32.412 504.394 504.394 0 0 0-83.054-26.334A528.713 528.713 0 0 0 523.3 18.454a514.533 514.533 0 0 1 229.919 32.411l32.411 13.167 31.399 16.206a507.423 507.423 0 0 1 57.733 37.476l26.334 21.27 12.155 11.141 12.154 11.142 23.296 23.296 21.27 24.308a510.481 510.481 0 0 1 65.836 106.35 522.666 522.666 0 0 1 36.463 111.415 517.42 517.42 0 0 1 0 205.61v1.014"/><path fill="#F806CC" d="M824.716 289.003s1.868-43.57.27-45.185c-1.593-1.61-150.522 3.219-150.522 3.219l-122.855 1.615-122.86-1.61s-148.912-4.828-150.516-3.218c-1.598 1.615.281 45.184.281 45.184s-2.577-3.432 7.737 14.164c10.298 17.584 11.159 100.43 57.092 114.593 45.927 14.18 96.576 15.041 128.33-2.143 0 0 41.206-23.611 56.658-81.12 0 0 4.242-27.566 23.278-27.887 19.037.321 23.302 27.888 23.302 27.888 15.446 57.502 56.658 81.113 56.658 81.113 31.753 17.185 82.407 16.318 128.324 2.144 45.944-14.152 46.788-96.993 57.103-114.594 10.275-17.596 7.72-14.163 7.72-14.163M465.224 402.74c-14.163 8.582-38.635 15.446-95.721 6.848-57.086-8.558-57.941-78.108-52.365-113.727 5.588-35.63 88.856-30.909 88.856-30.909 93.144 2.166 96.998 31.337 96.998 31.337 13.32 54.942-23.594 97.876-37.768 106.451m268.48 6.848c-57.085 8.598-81.563 1.74-95.715-6.848-14.163-8.575-51.081-51.51-37.768-106.446 0 0 3.86-29.181 96.981-31.33 0 0 83.291-4.722 88.873 30.908 5.565 35.62 4.721 105.158-52.37 113.716m67.389-154.45s-68.734 1.93-134.17 2.86c-56.299.798-110.205.725-115.315.573-5.115.152-58.999.236-115.302-.574-65.448-.945-134.193-2.858-134.193-2.858-3.421-6.488 1.722-6.488 1.722-6.488 12.182 1.997 238.196 4.006 247.773 4.085 9.589-.079 235.575-2.093 247.768-4.091 0 .006 5.144.006 1.717 6.494M218.37 602.979c-1.187 0-2.373-.297-3.56-.594-1.038-.148-1.927-.89-2.669-1.63-.741-.742-1.186-1.484-1.334-2.522-.149-.89-.149-1.63-.297-2.52v-85.266c0-1.483 0-3.114.148-4.597 0-1.038.149-1.928.445-2.818.445-1.482 1.483-2.52 2.818-3.114.89-.296 1.779-.593 2.817-.593 1.038-.148 2.076-.148 3.114-.148h29.806c6.228 0 12.456.89 18.388 2.373 5.486 1.334 10.38 3.707 14.828 6.969 5.635 4.004 9.046 9.49 10.677 16.163 1.038 4.153 1.187 8.453.445 12.753-.741 4.597-2.224 9.046-4.597 13.05a26.223 26.223 0 0 1-2.372 3.262c-4.3 5.042-9.787 8.452-16.164 10.825-4.597 1.78-9.342 2.817-14.236 3.41-2.669.297-5.486.742-8.155.89-1.335 0-2.67.297-4.004.445-.445.148-1.038.297-1.631.593-1.187.593-2.076 1.483-2.67 2.818-.444 1.038-.593 2.076-.74 3.114v4.3c-.15 4.3 0 8.6-.15 12.901v3.263c-.147.741-.296 1.63-.444 2.372-.445 1.631-1.483 2.67-2.966 3.41-.593.15-1.186.446-1.78.446-.889.148-1.927.445-2.817.445h-12.9m26.246-53.532c1.186.148 2.373.148 3.56 0 4.893-.149 9.045-1.928 12.307-5.635 1.335-1.483 2.224-3.114 2.817-4.894.89-3.41.594-6.673-.741-9.935-1.038-2.521-2.67-4.449-4.893-5.932-3.856-2.372-8.008-3.262-12.308-2.965-2.966.148-5.19 2.224-5.784 5.041-.148 1.038-.148 1.928-.148 2.966v13.94c0 1.037.148 2.075.445 3.113.593 2.521 2.224 3.856 4.745 4.3m76.18 53.533c-2.225 0-4.3 0-6.377-.594-1.186-.296-2.076-.741-2.817-1.483-.742-.89-1.335-1.779-1.483-2.817-.149-.89-.297-1.631-.297-2.52v-85.267c0-1.482 0-3.114.148-4.596 0-1.038.149-1.928.445-2.818.593-1.483 1.483-2.52 2.966-2.966 1.186-.445 2.373-.593 3.559-.593 1.335-.148 2.67-.148 3.855-.148h50.27c1.186 0 2.52 0 3.856.148 1.038 0 1.927.148 2.817.445 2.076.445 3.262 1.928 3.707 3.856.149.741.297 1.482.297 2.224v9.639c0 .593-.148 1.186-.148 1.779-.445 2.52-2.225 4.3-4.746 4.597-.89.148-1.78.297-2.52.297h-24.023c-1.335 0-2.67 0-4.004.148-1.186 0-2.373.148-3.41.593-1.78.593-2.818 1.78-3.56 3.41 0 .297-.148.594-.296 1.039-.445 2.52-.445 5.19-.148 7.859l.444 1.334c.742 2.225 2.225 3.56 4.597 4.004 1.187.297 2.373.297 3.56.297h8.6c1.78 0 3.559.148 5.338.445.593.148 1.187.148 1.78.445 1.483.444 2.669 1.482 3.114 3.114.445 1.186.741 2.52.741 3.855v7.86c0 1.186-.296 2.372-.593 3.558-.593 1.78-1.78 2.818-3.559 3.263-.445.296-1.038.296-1.631.444-2.373.149-4.745.445-7.266.445a50.103 50.103 0 0 0-6.673 0c-1.186 0-2.224 0-3.262.149-2.373.296-3.856 1.78-4.746 4.003-.89 2.225-.89 4.597 0 6.97.89 2.373 2.373 3.855 5.042 4.004 3.41.296 6.821.445 10.232.593h17.201c1.632 0 3.115 0 4.746.148.89.148 1.78.297 2.669.89 1.334 1.038 2.224 2.224 2.373 3.855.148.594.148 1.187.148 1.78v9.342c0 .741-.148 1.631-.297 2.52-.445 1.929-1.631 3.115-3.41 3.708-1.335.445-2.521.593-3.856.593-1.038.149-2.224.149-3.262.149h-50.122m86.856 0c-1.927 0-3.707 0-5.635-.445-1.038-.297-2.076-.742-2.817-1.483-.89-.89-1.483-1.928-1.631-3.114-.148-.89-.297-1.631-.297-2.521v-89.27c.149-.89.149-1.927.445-2.817a5.226 5.226 0 0 1 3.262-3.559c.742-.148 1.632-.297 2.373-.445 1.186-.148 2.224-.148 3.262-.148h28.323c6.673 0 13.05 1.038 19.426 2.817 7.118 1.928 13.346 5.19 18.684 10.232 3.856 3.707 6.822 8.008 8.898 12.901 2.224 4.894 3.559 10.232 4.152 15.57.593 3.56 1.038 7.118.89 10.677-.149 5.19-.742 10.232-1.928 15.274-1.631 6.673-4.449 12.901-8.601 18.24-3.707 4.893-8.156 8.748-13.494 11.714-6.525 3.559-13.494 5.338-20.909 5.932-4.893.445-9.787.445-14.68.445H407.65m24.616-20.91c1.187.15 2.373 0 3.56-.296 8.452-1.63 14.383-6.524 17.942-14.384 2.076-4.152 2.966-8.749 3.262-13.494v-7.118a42.303 42.303 0 0 0-1.78-10.528c-.74-2.818-1.927-5.338-3.558-7.711-1.483-2.076-3.114-3.707-5.19-5.042-3.262-2.224-7.118-3.41-11.122-3.559-1.186-.148-2.52 0-3.855.149-1.187 0-2.225.593-3.114 1.482a6.23 6.23 0 0 0-2.076 4.004c-.149 1.631-.149 3.114-.297 4.745v33.217c0 3.114 0 6.228.148 9.342 0 1.186 0 2.373.149 3.559.445 3.41 2.52 5.338 5.931 5.635m149.879 22.985c-6.08-.445-11.863-1.78-17.202-4.746-8.007-4.3-13.79-10.528-17.201-18.98-.742-1.632-1.335-3.263-1.928-5.042-.445-1.038-.89-2.225-1.335-3.263-1.038-1.927-2.669-3.114-4.893-3.41-.89 0-1.928-.149-2.818 0-2.669.296-4.893 2.372-5.338 5.041-.148.742-.296 1.632-.296 2.521v16.46c-.149 1.632-.149 3.114-.594 4.597-.148.593-.296 1.187-.593 1.78-.593 1.186-1.63 1.927-2.966 2.372-1.482.445-2.965.594-4.596.594h-11.863c-1.335 0-2.818-.149-4.153-.594-2.076-.593-3.41-1.927-3.855-3.855-.297-1.631-.445-3.114-.593-4.597v-82.596c0-2.077 0-4.3.445-6.377.148-.741.148-1.483.445-2.076.593-1.631 1.63-2.67 3.262-3.114a9.311 9.311 0 0 1 2.817-.445c1.038-.148 1.928-.148 2.966-.148h29.361c4.745 0 9.49.593 14.236 1.483a45.207 45.207 0 0 1 9.935 2.966c1.631.593 3.114 1.334 4.597 2.076 4.3 2.076 7.711 5.19 10.528 8.897 2.818 3.559 4.3 7.563 5.042 11.863.297 1.334.445 2.817.593 4.152 0 .89.149 1.78 0 2.52-.296 4.005-.89 7.86-2.076 11.716a28.1 28.1 0 0 1-7.117 10.973c-1.483 1.483-3.115 2.67-4.597 4.004-.594.593-1.335 1.186-1.928 1.78-2.224 2.223-2.67 4.893-1.631 7.858 1.038 2.67 2.965 4.597 5.338 6.08 2.373 1.335 4.745 2.225 7.414 2.966 1.187.297 2.521.593 3.856.89 3.41.741 4.893 2.817 5.19 6.228.148.593.148 1.186.148 1.78v9.786c0 1.038-.148 2.076-.296 3.114-.445 2.076-1.78 3.41-3.707 4.152-1.483.445-3.115.742-4.597.594m-44.783-55.015c3.559.148 6.97-.593 10.083-2.225 2.67-1.483 4.745-3.559 6.377-6.08.296-.74.593-1.334.89-2.075 2.372-7.267-.742-14.83-7.86-17.795-1.335-.593-2.817-1.038-4.3-1.483-2.076-.445-4.004-.593-6.08-.296-2.521.296-4.152 1.63-4.894 4.152-.296 1.038-.444 2.224-.444 3.558v14.236c0 1.038 0 1.928.296 2.818.445 2.52 2.521 5.19 5.932 5.19m107.468 54.866a106.84 106.84 0 0 1-9.936-1.334 43.782 43.782 0 0 1-16.608-6.525c-5.931-3.707-10.38-8.749-13.642-14.977-2.966-5.487-4.597-11.27-5.635-17.35-.742-4.448-.89-9.045-.89-13.642v-4.597c.148-5.932 1.335-11.715 2.966-17.35a46.068 46.068 0 0 1 7.562-14.68c2.966-4.004 6.525-7.267 10.677-10.084 7.118-4.449 14.829-6.97 23.281-7.266h6.822c7.117.296 14.087 1.78 20.612 4.597 6.97 2.966 12.752 7.71 17.053 13.939 3.707 5.487 6.08 11.715 7.414 18.24 1.631 7.562 2.076 15.421 1.483 23.132-.741 8.75-2.67 17.053-6.97 24.764-5.931 10.974-14.977 18.24-27.136 21.354a49.535 49.535 0 0 1-11.27 1.78 37.647 37.647 0 0 1-5.783 0m-2.076-21.8c4.448 1.187 8.6.742 12.456-1.927 1.334-.89 2.52-2.076 3.559-3.41a31.46 31.46 0 0 0 3.114-5.339c1.78-4.152 2.817-8.6 3.262-13.197l.445-5.339c.148-1.483.148-3.114.148-4.597-.296-4.3-.593-8.6-1.483-12.9-.593-3.115-1.63-6.229-3.262-9.046-.89-1.928-2.076-3.56-3.559-4.894-2.52-2.224-5.338-3.707-8.6-4.152-4.598-.593-8.601.741-11.864 4.004-2.52 2.372-4.152 5.19-5.338 8.452-1.038 2.818-1.928 5.932-2.373 8.898-.444 3.707-.89 7.414-.741 10.973-.148 3.559.148 6.821.593 10.232.297 3.114 1.038 6.08 1.928 9.045.741 2.373 1.78 4.449 3.114 6.525 2.224 3.114 4.893 5.487 8.6 6.673m111.05 21.947c-4.152-.445-8.304-.594-12.456-1.483-5.19-1.038-10.084-2.818-14.68-5.635-6.526-3.856-11.42-9.194-14.978-16.015-2.373-4.3-3.855-8.898-4.745-13.791-1.187-5.487-1.78-11.122-1.631-16.46-.149-5.487.444-10.677 1.482-15.867 1.483-7.266 4.153-13.939 8.305-20.019 3.262-4.745 7.266-8.6 12.011-11.566 4.597-2.966 9.639-4.894 14.977-5.932 4.004-.89 8.008-1.334 12.011-1.186.89.148 1.78.148 2.521.148 5.635.742 11.122 1.78 16.46 3.56.89.296 1.78.74 2.67 1.037.89.297 1.63.89 2.372 1.631 1.186 1.187 1.78 2.521 1.483 4.152-.148 1.038-.297 2.225-.742 3.114-.89 2.521-1.927 4.894-2.817 7.415-.148.148-.148.445-.297.593-1.63 2.966-3.558 3.707-6.524 3.114-1.631-.297-3.263-.89-4.745-1.483a44.544 44.544 0 0 0-8.75-2.224 16.015 16.015 0 0 0-5.931.296c-4.152 1.038-7.266 3.56-9.639 7.118-1.927 2.966-3.114 6.377-3.855 9.935-.445 1.78-.593 3.708-.89 5.635-.296 3.263-.741 6.377-.593 9.64.297 5.634.741 11.269 2.373 16.607.741 2.67 1.63 5.19 2.965 7.711 1.335 2.076 2.966 4.004 4.894 5.635 2.372 1.78 5.042 2.818 8.007 3.114 2.966.149 5.932.149 8.898-.593 1.78-.593 3.559-1.038 5.486-1.631 1.038-.297 1.928-.741 2.966-.89.741-.296 1.483-.296 2.224-.296 1.187 0 2.225.445 3.263 1.334a8.639 8.639 0 0 1 1.63 2.225c1.335 2.817 2.373 5.783 3.263 8.749.445 1.038.593 2.224.445 3.41 0 1.187-.445 2.076-1.335 2.966-.593.593-1.186 1.038-1.927 1.335-1.187.444-2.225 1.038-3.41 1.334-6.08 1.631-12.309 2.818-18.685 3.263h-2.076m44.72-2.076c-1.187 0-2.373-.149-3.56-.445-.592 0-1.185-.149-1.779-.445-1.482-.593-2.372-1.78-2.52-3.56 0-.74 0-1.63.296-2.52.297-1.483.742-2.966 1.186-4.449 4.3-12.604 8.453-25.357 12.605-38.11 3.707-10.973 7.266-21.946 10.825-32.92 1.483-4.3 2.817-8.6 4.3-12.9.445-1.335.89-2.522 1.483-3.708 1.186-2.817 3.41-4.152 6.376-4.597 1.039-.148 2.077-.148 3.263-.148h21.057c1.334 0 2.669.148 4.003.296 2.521.297 4.45 1.632 5.635 3.856.594 1.335 1.187 2.52 1.632 4.004 1.63 4.448 2.965 9.045 4.448 13.494 1.631 4.745 3.114 9.342 4.597 13.939 3.263 10.084 6.673 20.019 9.935 29.954 2.966 9.046 5.932 18.24 8.898 27.285.445 1.186.741 2.521 1.038 3.856.296.741.296 1.63.445 2.372 0 1.78-1.038 3.263-2.67 3.856-1.334.593-2.52.741-3.855.741-1.631.149-3.114.149-4.745.149h-8.601c-1.186-.149-2.52-.297-3.855-.445-2.818-.445-4.746-2.076-5.784-4.746-.445-1.038-.89-2.224-1.186-3.262-.445-1.335-.89-2.52-1.335-3.707-1.334-3.114-3.558-5.042-6.97-5.338-1.185-.149-2.223-.149-3.261-.149h-17.202c-1.631 0-3.114 0-4.597.297-2.52.445-4.152 1.78-5.338 3.855-.89 1.483-1.335 3.114-1.928 4.746-.296 1.186-.741 2.52-1.186 3.707-.445.89-.89 1.63-1.631 2.372a6.197 6.197 0 0 1-3.56 2.076c-1.482.445-3.113.594-4.596.594h-11.863m42.707-38.407c1.63-.148 2.965-.148 4.3-.148 1.038-.149 2.076-.297 3.114-.742 1.483-.741 2.521-1.78 2.67-3.559.148-1.483-.149-3.114-.446-4.597l-1.779-6.228c-1.038-3.559-2.076-6.97-3.114-10.528-.297-1.187-.742-2.373-1.186-3.41-.297-.594-.742-1.187-1.187-1.78-1.334-1.483-2.817-1.483-4.003 0-.445.741-.89 1.483-1.187 2.224a15.777 15.777 0 0 0-1.334 3.707c-1.483 5.19-2.966 10.232-4.449 15.422-.148.89-.445 1.631-.445 2.521-.148.742-.148 1.631-.148 2.373 0 1.186.593 2.076 1.334 2.817 1.038 1.038 2.225 1.483 3.56 1.631 1.482.149 3.113.149 4.3.297M257.922 829.448c-5.858.182-11.651-.714-17.432-1.544-6.183-.895-12.326-2.186-18.47-3.354a32.308 32.308 0 0 1-7.175-2.18 11.794 11.794 0 0 1-3.608-2.452 7.552 7.552 0 0 1-2.29-5.002 16.128 16.128 0 0 1 .506-5.58c1.408-4.826 3.166-9.51 5.495-13.961.39-.74.857-1.447 1.382-2.082a9.933 9.933 0 0 1 7.578-3.828c2.316-.097 4.574.272 6.818.778 3.257.74 6.5 1.538 9.777 2.18 3.075.597 6.17 1.07 9.27 1.505 5.43.772 10.835.383 16.18-.765 2.66-.571 5.21-1.486 7.67-2.667a21.597 21.597 0 0 0 7.674-6.306 12.863 12.863 0 0 0-.22-16.2 31.186 31.186 0 0 0-7.526-6.552c-3.906-2.445-8.045-4.411-12.203-6.364-4.535-2.14-9.063-4.269-13.579-6.43-4.34-2.075-8.447-4.56-12.501-7.136a68.833 68.833 0 0 1-13.469-11.158c-8.174-8.758-12.475-19.074-12.735-31.102-.195-8.537 1.765-16.576 5.288-24.263 3.276-7.15 8.206-13.047 14.337-17.932 7.63-6.085 16.349-10.01 25.691-12.573a90.891 90.891 0 0 1 15.376-2.907c3.938-.376 7.85-1.005 11.84-1.018 7.986-.02 15.797 1.284 23.55 3.03 3.25.726 6.468 1.673 9.66 2.66 1.985.61 3.905 1.44 5.838 2.238.766.311 1.493.746 2.187 1.2 4.496 2.939 6.02 6.715 4.45 11.853-1.09 3.587-2.543 7.071-3.88 10.575-.298.772-.752 1.492-1.22 2.18-2.419 3.607-5.721 5.449-10.126 4.755a70.942 70.942 0 0 1-6.728-1.44 115.674 115.674 0 0 0-14.11-2.81c-4.808-.629-9.59-.55-14.312.59-1.622.39-3.211.91-4.781 1.467-3.037 1.07-5.482 2.971-7.539 5.417-3.36 3.997-4.022 10.114-1.492 14.688.597 1.084 1.388 2.076 2.219 3.01 2.66 2.998 5.825 5.366 9.44 7.117 5.818 2.829 11.625 5.677 17.483 8.434 7.941 3.737 15.661 7.863 22.953 12.768a62.43 62.43 0 0 1 14.13 13.209c5.567 7.058 8.499 15.232 8.98 24.276a53.588 53.588 0 0 1-3.725 22.68 45.05 45.05 0 0 1-9.66 15.234l-3.075 3.127c-6.507 6.695-14.24 11.437-22.908 14.876-9.601 3.808-19.527 5.994-29.758 7.026-3.737.383-7.461.843-11.25.733m122.74-3.607c-2.596 0-4.931-.52-7.526-1.038-3.374-1.038-5.97-3.114-6.488-6.747-.779-2.855-1.038-5.45-1.298-8.045V665.727c0-4.671.26-9.342 1.038-13.754.52-2.335 1.817-4.152 3.893-5.45.778-.778 1.817-1.297 2.855-1.297 1.816-.519 3.633-1.038 5.45-1.038h24.392c1.817 0 3.893.519 5.71 1.038 3.373.779 5.709 3.114 6.747 6.747.519 1.817.778 3.893.778 5.969.26 2.076.26 4.152.26 6.228v34.514c0 2.854 0 5.45.26 8.304.259 2.336 1.297 4.412 2.854 6.228 1.816 2.076 3.892 3.374 7.006 3.633 1.557.26 3.114.26 4.93.26h25.692c1.816 0 3.633 0 5.709-.26 4.93-.778 8.304-3.892 9.342-8.823.26-1.557.52-2.855.52-4.412v-41.26c0-2.336.259-4.672.259-7.007.26-6.488 4.67-10.64 10.64-10.9 1.297 0 2.594-.259 3.892-.259h20.5c2.077 0 4.153.26 6.229.519 5.19 1.038 8.044 4.412 8.823 9.602.26 2.076.26 4.411.26 6.747V804.82c0 2.855 0 5.71-.26 8.564 0 1.816-.26 3.373-.779 4.93-1.038 3.374-3.114 5.45-6.487 6.488-2.595.519-5.19 1.038-8.045 1.038h-19.463c-2.076 0-4.411-.52-6.747-.779-4.93-1.038-7.785-3.892-8.304-8.823-.26-1.816-.26-3.373-.26-5.19-.259-3.114-.259-6.488-.259-9.861v-25.691c0-3.114 0-6.228-1.038-9.342-.778-3.114-2.595-5.19-5.19-6.747-1.298-.52-2.855-.779-4.152-1.038-1.557-.26-3.114-.26-4.412-.26h-26.988c-1.817 0-3.893 0-5.71.26-4.41.778-7.006 3.373-8.044 7.785-.519 1.297-.519 2.854-.778 4.152v36.59c0 2.076-.26 4.152-.26 6.228 0 2.076-.519 4.152-1.297 5.969-.779 2.854-2.855 4.67-5.45 5.45-2.854.778-5.45 1.297-8.045 1.297h-20.76m250.61 3.373a186.97 186.97 0 0 1-17.387-2.335 76.619 76.619 0 0 1-29.065-11.418c-10.38-6.488-18.165-15.311-23.874-26.21-5.19-9.602-8.045-19.723-9.861-30.362-1.298-7.785-1.557-15.83-1.557-23.875v-8.044c.26-10.38 2.335-20.501 5.19-30.362 2.855-9.342 7.266-17.906 13.235-25.691 5.19-7.007 11.418-12.716 18.684-17.646 12.456-7.785 25.95-12.197 40.742-12.716h11.937c12.456.519 24.653 3.114 36.071 8.045 12.197 5.19 22.318 13.494 29.843 24.393 6.488 9.602 10.64 20.5 12.975 31.919 2.855 13.235 3.634 26.988 2.596 40.483-1.298 15.31-4.672 29.843-12.197 43.337-10.38 19.203-26.21 31.919-47.49 37.368a86.687 86.687 0 0 1-19.722 3.114c-3.373.26-6.747.26-10.12 0m-3.633-38.147c7.785 2.076 15.05 1.298 21.798-3.373 2.335-1.557 4.411-3.633 6.228-5.969 2.076-2.854 3.893-5.968 5.45-9.342 3.114-7.266 4.93-15.051 5.709-23.096l.778-9.342c.26-2.595.26-5.45.26-8.045-.52-7.525-1.038-15.05-2.595-22.576-1.038-5.45-2.855-10.9-5.71-15.83-1.556-3.374-3.632-6.228-6.228-8.564-4.411-3.892-9.342-6.487-15.05-7.266-8.045-1.038-15.052 1.298-20.761 7.007-4.412 4.152-7.266 9.082-9.342 14.791-1.817 4.93-3.374 10.38-4.152 15.57-.779 6.488-1.557 12.976-1.298 19.204-.26 6.228.26 11.937 1.038 17.906.52 5.45 1.817 10.64 3.374 15.83 1.297 4.151 3.114 7.785 5.45 11.418 3.892 5.45 8.563 9.601 15.05 11.677m133.567 34.774c-2.076 0-4.152-.52-6.228-1.038-1.816-.26-3.373-1.557-4.67-2.855-1.298-1.297-2.077-2.595-2.336-4.411-.26-1.557-.26-2.855-.52-4.412V663.91c0-2.595 0-5.45.26-8.044 0-1.817.26-3.374.779-4.93.778-2.596 2.595-4.412 4.93-5.45 1.557-.52 3.114-1.038 4.93-1.038 1.817-.26 3.634-.26 5.45-.26h52.16c10.9 0 21.799 1.557 32.18 4.152 9.6 2.336 18.164 6.488 25.95 12.197 9.86 7.006 15.83 16.608 18.684 28.286 1.816 7.266 2.076 14.791.778 22.317-1.297 8.045-3.892 15.83-8.044 22.836-1.298 2.076-2.595 3.893-4.152 5.71-7.526 8.823-17.128 14.791-28.286 18.943-8.045 3.114-16.349 4.93-24.913 5.969-4.67.519-9.601 1.297-14.272 1.557-2.336 0-4.671.519-7.007.778-.779.26-1.817.52-2.855 1.038-2.076 1.038-3.633 2.595-4.67 4.931-.78 1.817-1.039 3.633-1.298 5.45v7.525c-.26 7.526 0 15.051-.26 22.577v5.71c-.26 1.297-.519 2.854-.778 4.151-.779 2.855-2.595 4.671-5.19 5.969-1.038.26-2.076.778-3.114.778-1.557.26-3.374.779-4.93.779h-22.578m45.933-93.681c2.076.26 4.152.26 6.228 0 8.563-.26 15.83-3.374 21.538-9.861 2.336-2.595 3.893-5.45 4.931-8.564 1.557-5.969 1.038-11.678-1.298-17.387-1.816-4.411-4.67-7.785-8.563-10.38-6.747-4.152-14.013-5.709-21.539-5.19-5.19.26-9.083 3.893-10.12 8.823-.26 1.817-.26 3.374-.26 5.19v24.394c0 1.816.26 3.633.778 5.45 1.038 4.41 3.893 6.746 8.305 7.525"/></svg>